<svg width="3042" height="3042" viewBox="0 0 3042 3042" fill="none" xmlns="http://www.w3.org/2000/svg">
<rect width="3042" height="3042" fill="#0066FF"/>
<path fill-rule="evenodd" clip-rule="evenodd" d="M1663.55 1054.94C1822.86 967.708 2144.07 838.156 2140.83 1009.6C2138.34 1140.87 2019.93 1494.97 1704.64 1705.37C1296.67 1977.62 1387.3 1206.19 1663.55 1054.94Z" fill="#FFE347"/>
<path d="M1353.16 643.634C1682.57 425.261 1935.39 499.084 2010.08 616.263C2084.76 733.443 1794.81 857.776 1698.36 863.018C1405.81 878.921 1248.93 1005.66 1176.73 1073.78C1139.18 1109.2 1103.78 1147.85 1056.6 1172.73C1002.96 1201.02 940.559 1224.42 958.548 1168.08C1061.3 846.301 1308.31 674.773 1353.16 643.634Z" fill="#FFE347"/>
<path fill-rule="evenodd" clip-rule="evenodd" d="M1097.45 1774.64C960.044 1673.41 921.291 1472.72 948.039 1399.47C974.788 1326.21 1163.16 1225.45 1230.95 1314.05C1304.5 1410.19 1289.53 1916.16 1097.45 1774.64Z" fill="#FFE347"/>
<path fill-rule="evenodd" clip-rule="evenodd" d="M1295.85 1153.26C1300.54 1132.23 1299.67 1132.02 1308.7 1112.75C1352.99 1018.21 1436.41 1038.27 1413.39 1136.26C1386.81 1249.43 1276.46 1268.48 1295.85 1153.26Z" fill="#FFE347"/>
<path d="M1144.49 2036.91C1153.2 2036.91 1160.68 2039.71 1166.94 2045.31C1173.47 2050.67 1176.73 2057.08 1176.73 2064.54V2140.09C1176.73 2147.56 1173.47 2153.97 1166.94 2159.33C1160.68 2164.69 1153.2 2167.38 1144.49 2167.38H902.859C861.839 2167.38 861.668 2222.64 902.859 2222.64L1061.5 2224.57C1070.21 2224.57 1077.69 2227.25 1083.95 2232.61C1090.21 2237.97 1093.34 2244.39 1093.34 2251.85V2327.4C1093.34 2334.86 1090.21 2341.39 1083.95 2346.99C1077.69 2352.35 1070.21 2355.03 1061.5 2355.03L902.859 2353.1C885.551 2353.1 871.024 2365.55 871.023 2380.38V2510.85C871.023 2518.31 867.758 2524.84 861.228 2530.44C854.969 2535.8 847.487 2538.48 838.779 2538.48H750.617C741.91 2538.48 734.427 2535.8 728.169 2530.44C721.911 2524.84 718.781 2518.31 718.781 2510.85V2064.54C718.781 2057.08 721.911 2050.67 728.169 2045.31C734.427 2039.71 741.91 2036.91 750.617 2036.91H1144.49ZM1361.63 2036.91C1370.33 2036.91 1377.82 2039.59 1384.08 2044.96C1390.33 2050.32 1393.46 2056.73 1393.46 2064.19V2511.2C1393.46 2518.66 1390.33 2525.07 1384.08 2530.44C1377.82 2535.8 1370.33 2538.48 1361.63 2538.48H1272.65C1263.94 2538.48 1256.46 2535.8 1250.2 2530.44C1244.21 2525.07 1241.22 2518.66 1241.22 2511.2V2064.19C1241.22 2056.73 1244.21 2050.32 1250.2 2044.96C1256.46 2039.59 1263.94 2036.91 1272.65 2036.91H1361.63ZM1572.24 2036.91C1579.58 2036.91 1586.11 2038.89 1591.83 2042.86C1597.54 2046.59 1601.35 2051.49 1603.26 2057.55L1690.6 2349.26C1693.05 2357.18 1706.28 2369.07 1708.56 2361.15C1797.84 2050.2 1972.74 2052.47 2063.66 2361.15C2065.99 2369.06 2079.17 2357.18 2081.61 2349.26L2168.96 2057.55C2170.86 2051.49 2174.67 2046.59 2180.39 2042.86C2186.1 2038.89 2192.63 2036.91 2199.98 2036.91H2291C2301.34 2036.91 2309.77 2040.53 2316.3 2047.75C2322.83 2054.75 2324.74 2062.56 2322.02 2071.19L2188.14 2517.84C2186.24 2523.91 2182.43 2528.92 2176.71 2532.88C2171 2536.61 2164.47 2538.48 2157.12 2538.48H1961.21C1953.59 2538.48 1946.79 2536.5 1940.8 2532.53C1934.81 2528.34 1931.14 2522.97 1929.78 2516.45C1909.07 2236.68 1858.78 2243.47 1842.84 2516.45C1841.48 2522.97 1837.81 2528.34 1831.82 2532.53C1825.84 2536.5 1818.9 2538.48 1811.01 2538.48H1615.09C1607.75 2538.48 1601.22 2536.61 1595.5 2532.88C1589.79 2528.92 1585.98 2523.91 1584.07 2517.84L1450.2 2071.19C1447.48 2062.56 1449.38 2054.75 1455.91 2047.75C1462.44 2040.53 1470.88 2036.91 1481.22 2036.91H1572.24Z" fill="white"/>
<path d="M1144.49 2036.91C1153.2 2036.91 1160.68 2039.71 1166.94 2045.31C1173.47 2050.67 1176.73 2057.08 1176.73 2064.54V2140.09C1176.73 2147.56 1173.47 2153.97 1166.94 2159.33C1160.68 2164.69 1153.2 2167.38 1144.49 2167.38H902.859C861.839 2167.38 861.668 2222.64 902.859 2222.64L1061.5 2224.57C1070.21 2224.57 1077.69 2227.25 1083.95 2232.61C1090.21 2237.97 1093.34 2244.39 1093.34 2251.85V2327.4C1093.34 2334.86 1090.21 2341.39 1083.95 2346.99C1077.69 2352.35 1070.21 2355.03 1061.5 2355.03L902.859 2353.1C885.551 2353.1 871.024 2365.55 871.023 2380.38V2510.85C871.023 2518.31 867.758 2524.84 861.228 2530.44C854.969 2535.8 847.487 2538.48 838.779 2538.48H750.617C741.91 2538.48 734.427 2535.8 728.169 2530.44C721.911 2524.84 718.781 2518.31 718.781 2510.85V2064.54C718.781 2057.08 721.911 2050.67 728.169 2045.31C734.427 2039.71 741.91 2036.91 750.617 2036.91H1144.49ZM1361.63 2036.91C1370.33 2036.91 1377.82 2039.59 1384.08 2044.96C1390.33 2050.32 1393.46 2056.73 1393.46 2064.19V2511.2C1393.46 2518.66 1390.33 2525.07 1384.08 2530.44C1377.82 2535.8 1370.33 2538.48 1361.63 2538.48H1272.65C1263.94 2538.48 1256.46 2535.8 1250.2 2530.44C1244.21 2525.07 1241.22 2518.66 1241.22 2511.2V2064.19C1241.22 2056.73 1244.21 2050.32 1250.2 2044.96C1256.46 2039.59 1263.94 2036.91 1272.65 2036.91H1361.63ZM1572.24 2036.91C1579.58 2036.91 1586.11 2038.89 1591.83 2042.86C1597.54 2046.59 1601.35 2051.49 1603.26 2057.55L1690.6 2349.26C1693.05 2357.18 1706.28 2369.07 1708.56 2361.15C1797.84 2050.2 1972.74 2052.47 2063.66 2361.15C2065.99 2369.06 2079.17 2357.18 2081.61 2349.26L2168.96 2057.55C2170.86 2051.49 2174.67 2046.59 2180.39 2042.86C2186.1 2038.89 2192.63 2036.91 2199.98 2036.91H2291C2301.34 2036.91 2309.77 2040.53 2316.3 2047.75C2322.83 2054.75 2324.74 2062.56 2322.02 2071.19L2188.14 2517.84C2186.24 2523.91 2182.43 2528.92 2176.71 2532.88C2171 2536.61 2164.47 2538.48 2157.12 2538.48H1961.21C1953.59 2538.48 1946.79 2536.5 1940.8 2532.53C1934.81 2528.34 1931.14 2522.97 1929.78 2516.45C1909.07 2236.68 1858.78 2243.47 1842.84 2516.45C1841.48 2522.97 1837.81 2528.34 1831.82 2532.53C1825.84 2536.5 1818.9 2538.48 1811.01 2538.48H1615.09C1607.75 2538.48 1601.22 2536.61 1595.5 2532.88C1589.79 2528.92 1585.98 2523.91 1584.07 2517.84L1450.2 2071.19C1447.48 2062.56 1449.38 2054.75 1455.91 2047.75C1462.44 2040.53 1470.88 2036.91 1481.22 2036.91H1572.24Z" stroke="white"/>
</svg>
